<svg viewBox="0 0 800 500" xmlns="http://www.w3.org/2000/svg" font-family="'Segoe UI',Arial,sans-serif">
  <defs>
    <linearGradient id="bg" x1="0" y1="0" x2="1" y2="1">
      <stop offset="0" stop-color="#0a0f1e"/><stop offset="0.55" stop-color="#0d1b2a"/><stop offset="1" stop-color="#070b16"/>
    </linearGradient>
    <linearGradient id="trend" x1="0" y1="0" x2="1" y2="0">
      <stop offset="0" stop-color="#22d3ee"/><stop offset="1" stop-color="#2dd4bf"/>
    </linearGradient>
    <radialGradient id="glow" cx="0.5" cy="0.42" r="0.65">
      <stop offset="0" stop-color="#2dd4bf" stop-opacity="0.22"/><stop offset="1" stop-color="#2dd4bf" stop-opacity="0"/>
    </radialGradient>
    <filter id="fg" x="-60%" y="-60%" width="220%" height="220%">
      <feGaussianBlur stdDeviation="3.5" result="b"/><feMerge><feMergeNode in="b"/><feMergeNode in="SourceGraphic"/></feMerge>
    </filter>
  </defs>
  <rect width="800" height="500" fill="url(#bg)"/>
  <rect width="800" height="500" fill="url(#glow)"/>
  <g><line x1="60" y1="160" x2="740" y2="160" stroke="#1e3a5a" stroke-width="1" opacity="0.35"/><line x1="60" y1="230" x2="740" y2="230" stroke="#1e3a5a" stroke-width="1" opacity="0.35"/><line x1="60" y1="300" x2="740" y2="300" stroke="#1e3a5a" stroke-width="1" opacity="0.35"/><line x1="60" y1="370" x2="740" y2="370" stroke="#1e3a5a" stroke-width="1" opacity="0.35"/></g>
  <g><line x1="95" y1="332" x2="95" y2="380" stroke="#34d399" stroke-width="2" opacity="0.9"/><rect x="84" y="344" width="22" height="28" rx="2" fill="#34d399" opacity="0.95"/><line x1="160" y1="336" x2="160" y2="364" stroke="#f87171" stroke-width="2" opacity="0.9"/><rect x="149" y="344" width="22" height="12" rx="2" fill="#f87171" opacity="0.95"/><line x1="225" y1="306" x2="225" y2="362" stroke="#34d399" stroke-width="2" opacity="0.9"/><rect x="214" y="318" width="22" height="38" rx="2" fill="#34d399" opacity="0.95"/><line x1="290" y1="310" x2="290" y2="340" stroke="#f87171" stroke-width="2" opacity="0.9"/><rect x="279" y="318" width="22" height="14" rx="2" fill="#f87171" opacity="0.95"/><line x1="355" y1="276" x2="355" y2="338" stroke="#34d399" stroke-width="2" opacity="0.9"/><rect x="344" y="286" width="22" height="46" rx="2" fill="#34d399" opacity="0.95"/><line x1="420" y1="280" x2="420" y2="310" stroke="#f87171" stroke-width="2" opacity="0.9"/><rect x="409" y="286" width="22" height="16" rx="2" fill="#f87171" opacity="0.95"/><line x1="485" y1="244" x2="485" y2="308" stroke="#34d399" stroke-width="2" opacity="0.9"/><rect x="474" y="252" width="22" height="50" rx="2" fill="#34d399" opacity="0.95"/><line x1="550" y1="224" x2="550" y2="260" stroke="#34d399" stroke-width="2" opacity="0.9"/><rect x="539" y="236" width="22" height="16" rx="2" fill="#34d399" opacity="0.95"/><line x1="615" y1="198" x2="615" y2="244" stroke="#34d399" stroke-width="2" opacity="0.9"/><rect x="604" y="206" width="22" height="30" rx="2" fill="#34d399" opacity="0.95"/><line x1="680" y1="200" x2="680" y2="230" stroke="#f87171" stroke-width="2" opacity="0.9"/><rect x="669" y="206" width="22" height="16" rx="2" fill="#f87171" opacity="0.95"/></g>
  <polyline points="95,344 160,356 225,318 290,332 355,286 420,302 485,252 550,236 615,206 680,222" fill="none" stroke="url(#trend)" stroke-width="3" stroke-linejoin="round" stroke-linecap="round" filter="url(#fg)"/>
  <circle cx="680" cy="222" r="6" fill="#2dd4bf" filter="url(#fg)"/>
  <g filter="url(#fg)"><line x1="560" y1="70" x2="635" y2="55" stroke="#22d3ee" stroke-width="1" opacity="0.28"/><line x1="560" y1="70" x2="635" y2="95" stroke="#22d3ee" stroke-width="1" opacity="0.28"/><line x1="560" y1="70" x2="635" y2="135" stroke="#22d3ee" stroke-width="1" opacity="0.28"/><line x1="560" y1="70" x2="635" y2="175" stroke="#22d3ee" stroke-width="1" opacity="0.28"/><line x1="560" y1="120" x2="635" y2="55" stroke="#22d3ee" stroke-width="1" opacity="0.28"/><line x1="560" y1="120" x2="635" y2="95" stroke="#22d3ee" stroke-width="1" opacity="0.28"/><line x1="560" y1="120" x2="635" y2="135" stroke="#22d3ee" stroke-width="1" opacity="0.28"/><line x1="560" y1="120" x2="635" y2="175" stroke="#22d3ee" stroke-width="1" opacity="0.28"/><line x1="560" y1="170" x2="635" y2="55" stroke="#22d3ee" stroke-width="1" opacity="0.28"/><line x1="560" y1="170" x2="635" y2="95" stroke="#22d3ee" stroke-width="1" opacity="0.28"/><line x1="560" y1="170" x2="635" y2="135" stroke="#22d3ee" stroke-width="1" opacity="0.28"/><line x1="560" y1="170" x2="635" y2="175" stroke="#22d3ee" stroke-width="1" opacity="0.28"/><line x1="635" y1="55" x2="710" y2="95" stroke="#22d3ee" stroke-width="1" opacity="0.28"/><line x1="635" y1="55" x2="710" y2="145" stroke="#22d3ee" stroke-width="1" opacity="0.28"/><line x1="635" y1="95" x2="710" y2="95" stroke="#22d3ee" stroke-width="1" opacity="0.28"/><line x1="635" y1="95" x2="710" y2="145" stroke="#22d3ee" stroke-width="1" opacity="0.28"/><line x1="635" y1="135" x2="710" y2="95" stroke="#22d3ee" stroke-width="1" opacity="0.28"/><line x1="635" y1="135" x2="710" y2="145" stroke="#22d3ee" stroke-width="1" opacity="0.28"/><line x1="635" y1="175" x2="710" y2="95" stroke="#22d3ee" stroke-width="1" opacity="0.28"/><line x1="635" y1="175" x2="710" y2="145" stroke="#22d3ee" stroke-width="1" opacity="0.28"/><circle cx="560" cy="70" r="5" fill="#0d1b2a" stroke="#2dd4bf" stroke-width="1.6"/><circle cx="560" cy="120" r="5" fill="#0d1b2a" stroke="#2dd4bf" stroke-width="1.6"/><circle cx="560" cy="170" r="5" fill="#0d1b2a" stroke="#2dd4bf" stroke-width="1.6"/><circle cx="635" cy="55" r="5" fill="#0d1b2a" stroke="#2dd4bf" stroke-width="1.6"/><circle cx="635" cy="95" r="5" fill="#0d1b2a" stroke="#2dd4bf" stroke-width="1.6"/><circle cx="635" cy="135" r="5" fill="#0d1b2a" stroke="#2dd4bf" stroke-width="1.6"/><circle cx="635" cy="175" r="5" fill="#0d1b2a" stroke="#2dd4bf" stroke-width="1.6"/><circle cx="710" cy="95" r="5" fill="#0d1b2a" stroke="#2dd4bf" stroke-width="1.6"/><circle cx="710" cy="145" r="5" fill="#0d1b2a" stroke="#2dd4bf" stroke-width="1.6"/></g>
  <text x="62" y="88" fill="#2dd4bf" font-size="42" font-weight="700" filter="url(#fg)">&#963;&#178;/8</text>
  <text x="64" y="116" fill="#7dd3fc" font-size="15" letter-spacing="3" opacity="0.85">VOLATILITY HARVEST</text>
  <text x="62" y="452" fill="#e2e8f0" font-size="22" font-weight="600">Shannon&#39;s Demon</text>
  <text x="64" y="476" fill="#64748b" font-size="14" letter-spacing="2">AUTO-TRADING &#183; ML &#183; TIME-SERIES PIPELINE</text>
</svg>